<svg width="24" height="24" viewBox="0 0 24 24" fill="none" xmlns="http://www.w3.org/2000/svg">
<rect width="24" height="24" rx="12" fill="#FCFCFC"/>
<path d="M9.11111 9.32353H14.8889M9.11111 12.3824H13.4444M9.83333 16.2059H7.66667C7.09203 16.2059 6.54093 15.9642 6.1346 15.534C5.72827 15.1037 5.5 14.5202 5.5 13.9118V7.79412C5.5 7.18568 5.72827 6.60216 6.1346 6.17193C6.54093 5.7417 7.09203 5.5 7.66667 5.5H16.3333C16.908 5.5 17.4591 5.7417 17.8654 6.17193C18.2717 6.60216 18.5 7.18568 18.5 7.79412V13.9118C18.5 14.5202 18.2717 15.1037 17.8654 15.534C17.4591 15.9642 16.908 16.2059 16.3333 16.2059H14.1667L12 18.5L9.83333 16.2059Z" stroke="#012D72" stroke-linecap="round" stroke-linejoin="round"/>
</svg>
