<svg width="15" height="20" viewBox="0 0 27 36" fill="none" xmlns="http://www.w3.org/2000/svg">
<g opacity="0.3">
<path opacity="0.3" d="M22.9682 8.20833C22.0779 8.20745 21.2244 7.84507 20.5949 7.20077C19.9654 6.55646 19.6114 5.68284 19.6105 4.77165V0H4.60687C3.44472 0 2.33017 0.472539 1.50841 1.31364C0.686641 2.15474 0.224976 3.29549 0.224976 4.48499V31.5216C0.226701 32.71 0.689124 33.8491 1.5107 34.6887C2.33228 35.5284 3.44584 36 4.60687 36H22.6181C23.7791 36 24.8927 35.5284 25.7143 34.6887C26.5358 33.8491 26.9983 32.71 27 31.5216V8.20833H22.9682Z" fill="#58AED9"/>
</g>
<path d="M26.9999 8.20833H22.9681C22.0779 8.20745 21.2244 7.84507 20.5949 7.20076C19.9654 6.55646 19.6113 5.68284 19.6105 4.77165V0L26.9999 8.20833Z" fill="#58AED9"/>
<path d="M22.0432 25.6617H5.23209C5.07014 25.6617 4.91482 25.5958 4.80031 25.4786C4.68579 25.3614 4.62146 25.2024 4.62146 25.0367C4.62189 24.8712 4.68641 24.7126 4.80088 24.5958C4.91535 24.4789 5.07042 24.4133 5.23209 24.4133H22.0432C22.2047 24.4133 22.3596 24.479 22.4738 24.5959C22.588 24.7128 22.6522 24.8713 22.6522 25.0367C22.6524 25.1187 22.6368 25.1999 22.6063 25.2757C22.5758 25.3515 22.531 25.4204 22.4744 25.4785C22.4178 25.5365 22.3506 25.5826 22.2766 25.6141C22.2026 25.6455 22.1233 25.6617 22.0432 25.6617Z" fill="#58AED9"/>
<path d="M22.0432 18.6217H5.23209C5.07042 18.6217 4.91535 18.5561 4.80088 18.4392C4.68641 18.3224 4.62189 18.1639 4.62146 17.9984C4.62146 17.8327 4.68579 17.6736 4.80031 17.5564C4.91482 17.4392 5.07014 17.3734 5.23209 17.3734H22.0432C22.1233 17.3734 22.2026 17.3896 22.2766 17.421C22.3506 17.4525 22.4178 17.4985 22.4744 17.5566C22.531 17.6146 22.5758 17.6835 22.6063 17.7594C22.6368 17.8352 22.6524 17.9164 22.6522 17.9984C22.6522 18.1637 22.588 18.3223 22.4738 18.4392C22.3596 18.5561 22.2047 18.6217 22.0432 18.6217Z" fill="#58AED9"/>
<path d="M22.0432 22.1418H5.23209C5.07014 22.1418 4.91482 22.0759 4.80031 21.9587C4.68579 21.8415 4.62146 21.6825 4.62146 21.5168C4.62189 21.3513 4.68641 21.1927 4.80088 21.0759C4.91535 20.959 5.07042 20.8934 5.23209 20.8934H22.0432C22.2047 20.8934 22.3596 20.9591 22.4738 21.076C22.588 21.1929 22.6522 21.3514 22.6522 21.5168C22.6524 21.5988 22.6368 21.68 22.6063 21.7558C22.5758 21.8316 22.531 21.9006 22.4744 21.9586C22.4178 22.0167 22.3506 22.0627 22.2766 22.0942C22.2026 22.1256 22.1233 22.1418 22.0432 22.1418Z" fill="#58AED9"/>
<path d="M15.4126 15.1017H5.23209C5.07042 15.1017 4.91535 15.0361 4.80088 14.9193C4.68641 14.8024 4.62189 14.6439 4.62146 14.4784C4.62146 14.3126 4.68579 14.1537 4.80031 14.0365C4.91482 13.9192 5.07014 13.8534 5.23209 13.8534H15.4126C15.5742 13.8538 15.7291 13.9199 15.8433 14.037C15.9575 14.1542 16.0216 14.3129 16.0216 14.4784C16.0211 14.6436 15.9568 14.8019 15.8427 14.9187C15.7286 15.0355 15.5739 15.1013 15.4126 15.1017Z" fill="#58AED9"/>
<path d="M15.4126 11.5818H5.23209C5.07042 11.5818 4.91535 11.5162 4.80088 11.3993C4.68641 11.2825 4.62189 11.124 4.62146 10.9585C4.62146 10.7927 4.68579 10.6337 4.80031 10.5165C4.91482 10.3993 5.07014 10.3335 5.23209 10.3335H15.4126C15.5742 10.3339 15.7291 10.4 15.8433 10.5171C15.9575 10.6343 16.0216 10.793 16.0216 10.9585C16.0211 11.1237 15.9568 11.282 15.8427 11.3988C15.7286 11.5156 15.5739 11.5814 15.4126 11.5818Z" fill="#58AED9"/>
<path d="M21.7451 10.3334H18.8661C18.3643 10.3334 17.9575 10.7497 17.9575 11.2634V14.21C17.9575 14.7237 18.3643 15.14 18.8661 15.14H21.7451C22.2469 15.14 22.6537 14.7237 22.6537 14.21V11.2634C22.6537 10.7497 22.2469 10.3334 21.7451 10.3334Z" fill="#58AED9"/>
</svg>
